<?xml version="1.0" standalone="no"?>
<!DOCTYPE svg PUBLIC "-//W3C//DTD SVG 20010904//EN"
 "http://www.w3.org/TR/2001/REC-SVG-20010904/DTD/svg10.dtd">
<svg version="1.0" xmlns="http://www.w3.org/2000/svg"
 width="209.000000pt" height="240.000000pt" viewBox="0 0 209.000000 240.000000"
 preserveAspectRatio="xMidYMid meet">

<g transform="translate(0.000000,240.000000) scale(0.100000,-0.100000)"
fill="#000000" stroke="none">
<path d="M1740 1426 c0 -8 4 -17 8 -20 4 -2 8 4 8 15 0 10 -4 19 -8 19 -4 0
-8 -6 -8 -14z"/>
<path d="M307 1389 c-36 -41 -51 -131 -44 -268 6 -127 24 -199 77 -306 101
-202 280 -348 501 -407 44 -12 82 -19 85 -15 13 13 -89 140 -227 284 -124 128
-154 165 -187 232 -55 109 -65 168 -60 333 5 156 15 139 -84 140 -43 0 -47 2
-37 19 14 27 7 24 -24 -12z"/>
<path d="M776 1402 c-4 -7 0 -15 8 -18 9 -3 13 -10 10 -15 -6 -10 55 -109 68
-109 4 0 8 -6 8 -13 0 -6 41 -59 91 -117 173 -201 187 -219 218 -282 44 -88
64 -194 57 -293 -9 -141 -57 -248 -157 -348 -32 -31 -55 -57 -52 -57 3 0 36
16 73 36 90 47 177 127 220 202 27 47 45 65 80 82 174 85 315 250 383 448 35
105 47 264 28 379 -12 69 -40 132 -41 91 0 -18 -20 -26 -20 -9 0 5 -38 9 -83
10 -69 1 -86 -1 -98 -16 -8 -9 -9 -14 -4 -11 6 4 15 -5 22 -18 6 -13 7 -22 3
-19 -4 3 -6 -4 -3 -15 3 -11 10 -20 15 -20 5 0 7 -3 4 -8 -2 -4 2 -32 10 -62
16 -63 18 -215 3 -280 -20 -88 -69 -171 -146 -248 -41 -41 -76 -73 -77 -71 -2
2 -7 31 -11 63 -17 156 -80 257 -303 487 -153 158 -144 148 -161 182 -16 29
-27 34 -34 15 -2 -7 -2 -2 0 12 3 23 2 23 -10 8 -8 -10 -20 -18 -28 -18 -11 0
-11 2 1 10 17 11 11 19 -20 25 -18 4 -20 2 -9 -11 6 -8 9 -17 6 -21 -4 -3 -15
5 -25 17 -13 16 -21 20 -26 12z"/>
</g>
</svg>
